User Type,Username,Date,Text
,datta95,2008-04-28T03:24Z,great!
,funkstarrr,2009-06-02T04:46Z,"Good quality,couldn't find this anywhere else since the DVD isn't released in the U.S.
Will definitely be seeding this."
,connorjfry,2009-10-09T20:01Z,"someone serious is seeding!
i'm getting like 300kb/s"
,vanglak,2010-02-15T02:22Z,I will pay anyone that will make srt subtitles in english! or at least translate spanish srt files that are out on the internet. i cannot find english subtitles!!! ):
,exceptional1414,2010-09-24T16:06Z,will seed!
,Jesssabuhka,2011-05-05T05:48Z,"OMG I love u!! thanx. 
now who also wants to b a legend and upload anutha Rose McGowan Movie called Kiss & Tell?"
,chinezyxx,2011-06-18T14:58Z,Awesome upload ! I'll kepp seeding !
,fillinthisspace,2012-02-18T10:21Z,"Resolution is 720x480 so the small black bars top and bottom haven't been cropped. No bid deal but the aspect ratio is wrong. If you change the aspect ratio to 16:9 on playback it'll display correctly.
Aside from the above, the quality is quite good"
,fillinthisspace,2012-02-18T10:24Z,"Video
ID                               : 0
Format                           : MPEG-4 Visual
Format settings, BVOP            : Yes
Format settings, QPel            : No
Format settings, GMC             : No warppoints
Format settings, Matrix          : Default (H.263)
Codec ID                         : DX50
Codec ID/Hint                    : DivX 5
Duration                         : 1h 18mn
Bit rate                         : 2 026 Kbps
Width                            : 720 pixels
Height                           : 480 pixels
Display aspect ratio             : 3:2
Frame rate                       : 25.000 fps
Standard                         : NTSC
Color space                      : YUV
Chroma subsampling               : 4:2:0
Bit depth                        : 8 bits
Scan type                        : Progressive
Compression mode                 : Lossy
Bits/(Pixel*Frame)               : 0.234
Stream size                      : 1.11 GiB (91%)
Writing library                  : DivX 5.0.2 (UTC 2002-05-16)

Audio
ID                               : 1
Format                           : MPEG Audio
Format version                   : Version 1
Format profile                   : Layer 3
Codec ID                         : 55
Codec ID/Hint                    : MP3
Duration                         : 1h 18mn
Bit rate mode                    : Constant
Bit rate                         : 192 Kbps
Channel(s)                       : 2 channels
Sampling rate                    : 44.1 KHz
Compression mode                 : Lossy
Delay relative to video          : 26ms
Stream size                      : 108 MiB (9%)
Alignment                        : Split accross interleaves
Interleave, duration             : 40 ms (1.00 video frame)
Title                            : Audio Stream"
